<?xml version="1.0" encoding="utf-8"?>
<!-- Generator: Adobe Illustrator 24.2.3, SVG Export Plug-In . SVG Version: 6.00 Build 0)  -->
<svg version="1.1" id="Layer_1" xmlns="http://www.w3.org/2000/svg" xmlns:xlink="http://www.w3.org/1999/xlink" x="0px" y="0px"
	 viewBox="0 0 1080 1080" style="enable-background:new 0 0 1080 1080;" xml:space="preserve">
<style type="text/css">
	.st0{fill:#FF9525;}
	.st1{fill:#8CC836;}
	.st2{fill:none;}
	.st3{font-family:'Montserrat-SemiBold';}
	.st4{font-size:110.284px;}
	.st5{font-family:'Montserrat-Bold';}
	.st6{font-size:59.6831px;}
	.st7{letter-spacing:11;}
</style>
<g>
	<path class="st0" d="M618.3,464.2c-4-16.7-7.9-33.3-12.2-49.9c-3.7-14.3-6.4-29.1-12.2-42.6c-4.1-9.6-11.7-18.2-19.3-25.6
		c-11.7-11.5-26.5-12-41.7-2.6c-17.5,10.8-30.2,26.3-41.5,43.1c-11.7,17.3-18.7,36.7-22.9,57.1c-0.3,1.6-0.3,3.3-0.5,6.2
		c7.7-2.4,14.5-4.7,21.4-6.8c26.9-8.4,53.8-16.9,80.8-25.1c2.6-0.8,6.9-1,8.1,0.5c1.4,1.6,0.8,5.7-0.1,8.3
		c-3.6,10.3-11.7,15.8-21.6,19.9c-24.3,10-48.3,20.6-72.4,31c-2.8,1.2-5.3,3-8,4.3c-32.3,15.1-23.4,56.2-5.5,71.6
		c8.2,7.1,17.9,6.7,27.6,5.7c28.6-3,57.2-5.4,85.9-2.1c6.3,0.7,12.6,2.9,18.6,5.2c5,1.9,8.1,6.4,7.6,11.7c-0.5,5.3-4.9,7.9-10.1,8.5
		c-9,1-18,1.7-27,2.5c-28.4,2.7-56.8,4.8-85,8.5c-17.4,2.3-33.2,2.5-47.1-10.3c-16.4-15-27.7-32.3-27.9-55.4
		c-0.3-30.5,7.5-59.1,18.5-87.2c12.6-32.2,27.2-63.4,48.2-91.1c14.4-19,31.2-35.3,54.3-43.5c32.8-11.6,58-1.4,72.5,30.1
		c17.5,38.1,22.3,78,15.6,119.4c-0.5,3.1-1.6,6.1-2.4,9.1C619.4,464.4,618.8,464.3,618.3,464.2z"/>
	<path class="st1" d="M568.3,232.2c0,15.3,0,29.9,0,44.9c-12.6,2.7-24.5,5.3-37,7.9c0-15.5,0-30.4,0-46.2
		C543.6,236.7,555.9,234.4,568.3,232.2z"/>
	<path class="st1" d="M518.8,188.1c17.6,7.9,28.3,17.2,35,24.7c1.2,1.3,2.6,3,4.1,4.7l-2.8,0.5c-10.4,1.3-40.2-7.8-48-20.8
		c-7.8-13-25.9-15.6-25.9-15.6s22.1-10.4,51.9,0s29.8,35,29.8,35l-2,0.3C545.3,194.4,518.8,188.1,518.8,188.1z"/>
	<path class="st0" d="M587.6,245.2l29.8-19.5c0,0,9.1-3.9,11.7,1.3s-6.5,7.8-6.5,7.8L587.6,245.2z"/>
	<path class="st0" d="M621.3,246.5l37.6-7.8c0,0,7.8-1.3,7.8,5.2c0,6.5-6.5,5.2-6.5,5.2l0,0c0,0-1.5,0-3.9,0
		C644.7,248.2,633,247.4,621.3,246.5z"/>
	<path class="st0" d="M590.2,256.9c12.5,0.4,25.1,0.9,37.6,1.3c0.9,0.1,2.4,0.3,3.9,1.3c0.7,0.4,2.9,1.9,3,4.3c0,0.3,0,1.2-0.4,2.2
		c-2.6,5.2-9.1,3.9-9.1,3.9l0,0c0,0-1.3-0.4-3.9-1.3C610.9,264.7,600.6,260.8,590.2,256.9z"/>
</g>
<g>
	<rect x="255.8" y="697.2" class="st2" width="568.5" height="91.7"/>
	<text transform="matrix(1 0 0 1 273.6108 779.0029)" class="st1 st3 st4">ETERNAL</text>
</g>
<g>
	<rect x="255.8" y="811.3" class="st2" width="568.5" height="91.7"/>
	<text transform="matrix(1 0 0 1 394.792 855.6338)" class="st0 st5 st6 st7">AROMA</text>
</g>
</svg>
